# xmcd
#
# Track frame offsets:
#	150
#	12995
#	28015
#	43245
#	56125
#	67447
#	80012
#	96430
#	107660
#	122140
#	135720
#	146987
#	162202
#	175410
#	186680
#	198532
#	213907
#	226012
#	239907
#	251490
#	265562
#	277407
#	288322
#	303037
#	312095
#	328140
#
# Disc length: 4507
#
# Revision: 1
# Processed by: cddbd v1.5.1PL0 Copyright (c) Steve Scherf et al.
# Submitted via: audiograbber 1.81.03
# Normalized: r0:DSETVAR1
#
DISCID=9f11991a
DTITLE=Various Artist - Opryland 50th Anniversary Volume 2
DYEAR=1900
DGENRE=Country
TTITLE0=Roy Orbison - It's Over
TTITLE1=Brenda Lee - Johnny One Time
TTITLE2=Kenny Rogers - Just Dropped In
TTITLE3=Solomon Burke - Just Out of Reach
TTITLE4=Floyd Cramer - Last Date
TTITLE5=Andy Williams - Lonely Street
TTITLE6=Emmylou Harris - Making Believe
TTITLE7=Hank Williams Jr. - Mind Your Business
TTITLE8=Kentucky Headhunters - Oh Lonesome Me
TTITLE9=Roy Orbison - Oh Pretty Woman
TTITLE10=Roy Orbison - Only The Lonely
TTITLE11=Englebert Humperdinc - Release Me
TTITLE12=Johnny Tillotson - Send Me The Pillow You Dream On
TTITLE13=Marty Robbins - Singing The Blues
TTITLE14=Patsy Cline - Sweet Dreams
TTITLE15=Mickey Newbury - Sweet Memories
TTITLE16=Johnny Tillotson - Talk Back Trembling Lips
TTITLE17=Patti Page - Tennesee Waltz
TTITLE18=Oak Ridge Boys - Thank God For Kids
TTITLE19=Casinos - Then You Can Tell Me Goodbye
TTITLE20=Jack Greene - There Goes My Everything
TTITLE21=Ricky Nelson - Travelin' Man
TTITLE22=Emmylou Harris - When I Stop Dreaming
TTITLE23=Everly Brothers - When Will I Be Loved
TTITLE24=Roy Orbison - You Got It
TTITLE25=Fats Domino - You Win Again
EXTD=
EXTT0=
EXTT1=
EXTT2=
EXTT3=
EXTT4=
EXTT5=
EXTT6=
EXTT7=
EXTT8=
EXTT9=
EXTT10=
EXTT11=
EXTT12=
EXTT13=
EXTT14=
EXTT15=
EXTT16=
EXTT17=
EXTT18=
EXTT19=
EXTT20=
EXTT21=
EXTT22=
EXTT23=
EXTT24=
EXTT25=
PLAYORDER=
